<svg width="89" height="67" viewBox="0 0 89 67" fill="none" xmlns="http://www.w3.org/2000/svg">
<mask id="path-1-outside-1_2004_14" maskUnits="userSpaceOnUse" x="-0.5" y="-0.5" width="90" height="68" fill="black">
<rect fill="white" x="-0.5" y="-0.5" width="90" height="68"/>
<path d="M7.604 6.02H9.092C11.46 6.02 13.476 6.868 15.14 8.564C16.836 10.228 17.684 12.244 17.684 14.612C17.684 16.98 16.836 19.012 15.14 20.708C13.476 22.372 11.46 23.204 9.092 23.204H0.5V0.5H9.092C10.98 0.5 12.788 0.868 14.516 1.604C16.244 2.308 17.764 3.332 19.076 4.676C20.388 5.988 21.396 7.508 22.1 9.236C22.836 10.964 23.204 12.756 23.204 14.612C23.204 18.516 21.828 21.844 19.076 24.596C16.324 27.348 12.996 28.724 9.092 28.724H0.5V28.052H9.092C12.804 28.052 15.972 26.74 18.596 24.116C21.22 21.492 22.532 18.324 22.532 14.612C22.532 10.9 21.22 7.748 18.596 5.156C15.972 2.532 12.804 1.22 9.092 1.22H1.172V22.532H9.092C11.268 22.532 13.124 21.764 14.66 20.228C16.228 18.66 17.012 16.788 17.012 14.612C17.012 12.436 16.228 10.58 14.66 9.044C13.124 7.476 11.268 6.692 9.092 6.692H7.604C7.444 7.364 7.028 7.7 6.356 7.7C5.972 7.7 5.652 7.572 5.396 7.316C5.14 7.06 5.012 6.756 5.012 6.404C5.012 6.02 5.14 5.7 5.396 5.444C5.652 5.188 5.972 5.06 6.356 5.06C7.028 5.06 7.444 5.38 7.604 6.02Z"/>
<path d="M27.8889 28.724H27.2169V0.5H33.4089V28.724H32.7369V28.388C32.7369 28.388 32.7369 19.332 32.7369 1.22C32.7369 1.22 31.1209 1.22 27.8889 1.22V28.724Z"/>
<path d="M44.7298 18.308L50.1058 28.052C50.1058 28.052 52.3937 28.052 56.9697 28.052C56.1058 26.58 54.0098 23.076 50.6818 17.54L50.9697 17.012C50.9697 17.012 51.1618 17.012 51.5457 17.012C53.7217 17.012 55.5778 16.244 57.1138 14.708C58.6818 13.172 59.4658 11.316 59.4658 9.14C59.4658 6.932 58.6818 5.06 57.1138 3.524C55.5778 1.988 53.7217 1.22 51.5457 1.22H38.1058V28.724H37.4338V0.5H51.5457C53.9137 0.5 55.9297 1.348 57.5938 3.044C59.2897 4.708 60.1378 6.74 60.1378 9.14C60.1378 11.476 59.3057 13.492 57.6418 15.188C55.9777 16.852 53.9618 17.7 51.5938 17.732L58.2178 28.724H49.6738L44.1538 18.644C44.0578 18.676 43.9457 18.692 43.8177 18.692C43.4657 18.692 43.1618 18.564 42.9058 18.308C42.6497 18.052 42.5218 17.748 42.5218 17.396C42.5218 17.012 42.6497 16.692 42.9058 16.436C43.1618 16.18 43.4657 16.052 43.8177 16.052C44.2017 16.052 44.5218 16.18 44.7778 16.436C45.0338 16.692 45.1618 17.012 45.1618 17.396C45.1618 17.748 45.0178 18.052 44.7298 18.308ZM53.1777 6.932C53.7858 7.54 54.0898 8.276 54.0898 9.14C54.0898 9.972 53.7858 10.692 53.1777 11.3C52.5697 11.908 51.8337 12.212 50.9697 12.212H43.4818V6.02H50.9697C51.8337 6.02 52.5697 6.324 53.1777 6.932ZM52.6978 10.82C53.1777 10.34 53.4178 9.78 53.4178 9.14C53.4178 8.468 53.1777 7.892 52.6978 7.412C52.2178 6.932 51.6418 6.692 50.9697 6.692H44.1538C44.1538 6.692 44.1538 8.308 44.1538 11.54H50.9697C51.6418 11.54 52.2178 11.3 52.6978 10.82Z"/>
<path d="M71.6386 6.692H64.1506V0.5H86.8546V6.692C86.8546 6.692 84.2786 6.692 79.1266 6.692V28.724H72.4066V28.052H72.7426C72.7426 28.052 74.6466 28.052 78.4546 28.052V6.02H78.7906C78.7906 6.02 81.2546 6.02 86.1826 6.02C86.1826 6.02 86.1826 4.42 86.1826 1.22C86.1826 1.22 79.0626 1.22 64.8226 1.22C64.8226 1.22 64.8226 2.82 64.8226 6.02H71.6386C71.8306 5.412 72.2306 5.108 72.8386 5.108C73.1906 5.108 73.4786 5.236 73.7026 5.492C73.9586 5.716 74.0866 6.004 74.0866 6.356C74.0866 6.708 73.9586 7.012 73.7026 7.268C73.4786 7.492 73.1906 7.604 72.8386 7.604C72.2306 7.604 71.8306 7.3 71.6386 6.692Z"/>
<path d="M7.796 55.308L13.172 65.052C13.172 65.052 15.46 65.052 20.036 65.052C19.172 63.58 17.076 60.076 13.748 54.54L14.036 54.012C14.036 54.012 14.228 54.012 14.612 54.012C16.788 54.012 18.644 53.244 20.18 51.708C21.748 50.172 22.532 48.316 22.532 46.14C22.532 43.932 21.748 42.06 20.18 40.524C18.644 38.988 16.788 38.22 14.612 38.22H1.172V65.724H0.5V37.5H14.612C16.98 37.5 18.996 38.348 20.66 40.044C22.356 41.708 23.204 43.74 23.204 46.14C23.204 48.476 22.372 50.492 20.708 52.188C19.044 53.852 17.028 54.7 14.66 54.732L21.284 65.724H12.74L7.22 55.644C7.124 55.676 7.012 55.692 6.884 55.692C6.532 55.692 6.228 55.564 5.972 55.308C5.716 55.052 5.588 54.748 5.588 54.396C5.588 54.012 5.716 53.692 5.972 53.436C6.228 53.18 6.532 53.052 6.884 53.052C7.268 53.052 7.588 53.18 7.844 53.436C8.1 53.692 8.228 54.012 8.228 54.396C8.228 54.748 8.084 55.052 7.796 55.308ZM16.244 43.932C16.852 44.54 17.156 45.276 17.156 46.14C17.156 46.972 16.852 47.692 16.244 48.3C15.636 48.908 14.9 49.212 14.036 49.212H6.548V43.02H14.036C14.9 43.02 15.636 43.324 16.244 43.932ZM15.764 47.82C16.244 47.34 16.484 46.78 16.484 46.14C16.484 45.468 16.244 44.892 15.764 44.412C15.284 43.932 14.708 43.692 14.036 43.692H7.22C7.22 43.692 7.22 45.308 7.22 48.54H14.036C14.708 48.54 15.284 48.3 15.764 47.82Z"/>
<path d="M27.8889 65.724H27.2169V37.5H33.4089V65.724H32.7369V65.388C32.7369 65.388 32.7369 56.332 32.7369 38.22C32.7369 38.22 31.1209 38.22 27.8889 38.22V65.724Z"/>
<path d="M61.4338 49.212C61.4338 49.212 61.4338 50.892 61.4338 54.252C61.4338 57.58 60.2658 60.412 57.9298 62.748C55.5938 65.084 52.7617 66.252 49.4338 66.252C46.1377 66.252 43.3058 65.084 40.9378 62.748C38.6018 60.412 37.4338 57.58 37.4338 54.252V49.212C37.4338 45.884 38.6018 43.052 40.9378 40.716C43.3058 38.348 46.1377 37.164 49.4338 37.164C52.7617 37.164 55.5938 38.348 57.9298 40.716C60.2658 43.052 61.4338 45.884 61.4338 49.212ZM60.7618 49.212C60.7618 46.076 59.6578 43.404 57.4498 41.196C55.2418 38.988 52.5698 37.884 49.4338 37.884C46.3298 37.884 43.6578 38.988 41.4178 41.196C39.2098 43.404 38.1058 46.076 38.1058 49.212V54.252C38.1058 57.388 39.2098 60.06 41.4178 62.268C43.6578 64.476 46.3298 65.58 49.4338 65.58C52.5698 65.58 55.2418 64.476 57.4498 62.268C59.6578 60.06 60.7618 57.388 60.7618 54.252V49.212ZM48.1377 60.156C46.8257 59.868 45.7377 59.196 44.8737 58.14C44.0098 57.084 43.5778 55.868 43.5778 54.492V48.972C43.5778 47.372 44.1538 45.996 45.3058 44.844C46.4578 43.692 47.8338 43.116 49.4338 43.116C50.8097 43.116 52.0257 43.548 53.0817 44.412C54.1698 45.276 54.8577 46.364 55.1458 47.676C55.4658 47.708 55.7217 47.852 55.9137 48.108C56.1377 48.364 56.2498 48.652 56.2498 48.972C56.2498 49.324 56.1217 49.644 55.8657 49.932C55.6097 50.188 55.2897 50.316 54.9058 50.316C54.5537 50.316 54.2498 50.188 53.9938 49.932C53.7378 49.644 53.6097 49.324 53.6097 48.972C53.6097 48.364 53.8978 47.948 54.4738 47.724C54.1858 46.604 53.5778 45.676 52.6497 44.94C51.7217 44.204 50.6497 43.836 49.4338 43.836C48.0257 43.836 46.8098 44.348 45.7858 45.372C44.7938 46.364 44.2978 47.564 44.2978 48.972V54.492C44.2978 55.676 44.6657 56.732 45.4017 57.66C46.1377 58.588 47.0817 59.196 48.2337 59.484C48.4577 58.94 48.8577 58.668 49.4338 58.668C49.8177 58.668 50.1377 58.796 50.3937 59.052C50.6497 59.308 50.7778 59.628 50.7778 60.012C50.7778 60.364 50.6497 60.668 50.3937 60.924C50.1377 61.18 49.8177 61.308 49.4338 61.308C49.1138 61.308 48.8258 61.196 48.5698 60.972C48.3458 60.748 48.2017 60.476 48.1377 60.156Z"/>
<path d="M72.998 43.692H65.51V37.5H88.214V43.692C88.214 43.692 85.638 43.692 80.486 43.692V65.724H73.766V65.052H74.102C74.102 65.052 76.006 65.052 79.814 65.052V43.02H80.15C80.15 43.02 82.614 43.02 87.542 43.02C87.542 43.02 87.542 41.42 87.542 38.22C87.542 38.22 80.422 38.22 66.182 38.22C66.182 38.22 66.182 39.82 66.182 43.02H72.998C73.19 42.412 73.59 42.108 74.198 42.108C74.55 42.108 74.838 42.236 75.062 42.492C75.318 42.716 75.446 43.004 75.446 43.356C75.446 43.708 75.318 44.012 75.062 44.268C74.838 44.492 74.55 44.604 74.198 44.604C73.59 44.604 73.19 44.3 72.998 43.692Z"/>
</mask>
<path d="M7.604 6.02H9.092C11.46 6.02 13.476 6.868 15.14 8.564C16.836 10.228 17.684 12.244 17.684 14.612C17.684 16.98 16.836 19.012 15.14 20.708C13.476 22.372 11.46 23.204 9.092 23.204H0.5V0.5H9.092C10.98 0.5 12.788 0.868 14.516 1.604C16.244 2.308 17.764 3.332 19.076 4.676C20.388 5.988 21.396 7.508 22.1 9.236C22.836 10.964 23.204 12.756 23.204 14.612C23.204 18.516 21.828 21.844 19.076 24.596C16.324 27.348 12.996 28.724 9.092 28.724H0.5V28.052H9.092C12.804 28.052 15.972 26.74 18.596 24.116C21.22 21.492 22.532 18.324 22.532 14.612C22.532 10.9 21.22 7.748 18.596 5.156C15.972 2.532 12.804 1.22 9.092 1.22H1.172V22.532H9.092C11.268 22.532 13.124 21.764 14.66 20.228C16.228 18.66 17.012 16.788 17.012 14.612C17.012 12.436 16.228 10.58 14.66 9.044C13.124 7.476 11.268 6.692 9.092 6.692H7.604C7.444 7.364 7.028 7.7 6.356 7.7C5.972 7.7 5.652 7.572 5.396 7.316C5.14 7.06 5.012 6.756 5.012 6.404C5.012 6.02 5.14 5.7 5.396 5.444C5.652 5.188 5.972 5.06 6.356 5.06C7.028 5.06 7.444 5.38 7.604 6.02Z" fill="#1B1B1B"/>
<path d="M27.8889 28.724H27.2169V0.5H33.4089V28.724H32.7369V28.388C32.7369 28.388 32.7369 19.332 32.7369 1.22C32.7369 1.22 31.1209 1.22 27.8889 1.22V28.724Z" fill="#1B1B1B"/>
<path d="M44.7298 18.308L50.1058 28.052C50.1058 28.052 52.3937 28.052 56.9697 28.052C56.1058 26.58 54.0098 23.076 50.6818 17.54L50.9697 17.012C50.9697 17.012 51.1618 17.012 51.5457 17.012C53.7217 17.012 55.5778 16.244 57.1138 14.708C58.6818 13.172 59.4658 11.316 59.4658 9.14C59.4658 6.932 58.6818 5.06 57.1138 3.524C55.5778 1.988 53.7217 1.22 51.5457 1.22H38.1058V28.724H37.4338V0.5H51.5457C53.9137 0.5 55.9297 1.348 57.5938 3.044C59.2897 4.708 60.1378 6.74 60.1378 9.14C60.1378 11.476 59.3057 13.492 57.6418 15.188C55.9777 16.852 53.9618 17.7 51.5938 17.732L58.2178 28.724H49.6738L44.1538 18.644C44.0578 18.676 43.9457 18.692 43.8177 18.692C43.4657 18.692 43.1618 18.564 42.9058 18.308C42.6497 18.052 42.5218 17.748 42.5218 17.396C42.5218 17.012 42.6497 16.692 42.9058 16.436C43.1618 16.18 43.4657 16.052 43.8177 16.052C44.2017 16.052 44.5218 16.18 44.7778 16.436C45.0338 16.692 45.1618 17.012 45.1618 17.396C45.1618 17.748 45.0178 18.052 44.7298 18.308ZM53.1777 6.932C53.7858 7.54 54.0898 8.276 54.0898 9.14C54.0898 9.972 53.7858 10.692 53.1777 11.3C52.5697 11.908 51.8337 12.212 50.9697 12.212H43.4818V6.02H50.9697C51.8337 6.02 52.5697 6.324 53.1777 6.932ZM52.6978 10.82C53.1777 10.34 53.4178 9.78 53.4178 9.14C53.4178 8.468 53.1777 7.892 52.6978 7.412C52.2178 6.932 51.6418 6.692 50.9697 6.692H44.1538C44.1538 6.692 44.1538 8.308 44.1538 11.54H50.9697C51.6418 11.54 52.2178 11.3 52.6978 10.82Z" fill="#1B1B1B"/>
<path d="M71.6386 6.692H64.1506V0.5H86.8546V6.692C86.8546 6.692 84.2786 6.692 79.1266 6.692V28.724H72.4066V28.052H72.7426C72.7426 28.052 74.6466 28.052 78.4546 28.052V6.02H78.7906C78.7906 6.02 81.2546 6.02 86.1826 6.02C86.1826 6.02 86.1826 4.42 86.1826 1.22C86.1826 1.22 79.0626 1.22 64.8226 1.22C64.8226 1.22 64.8226 2.82 64.8226 6.02H71.6386C71.8306 5.412 72.2306 5.108 72.8386 5.108C73.1906 5.108 73.4786 5.236 73.7026 5.492C73.9586 5.716 74.0866 6.004 74.0866 6.356C74.0866 6.708 73.9586 7.012 73.7026 7.268C73.4786 7.492 73.1906 7.604 72.8386 7.604C72.2306 7.604 71.8306 7.3 71.6386 6.692Z" fill="#1B1B1B"/>
<path d="M7.796 55.308L13.172 65.052C13.172 65.052 15.46 65.052 20.036 65.052C19.172 63.58 17.076 60.076 13.748 54.54L14.036 54.012C14.036 54.012 14.228 54.012 14.612 54.012C16.788 54.012 18.644 53.244 20.18 51.708C21.748 50.172 22.532 48.316 22.532 46.14C22.532 43.932 21.748 42.06 20.18 40.524C18.644 38.988 16.788 38.22 14.612 38.22H1.172V65.724H0.5V37.5H14.612C16.98 37.5 18.996 38.348 20.66 40.044C22.356 41.708 23.204 43.74 23.204 46.14C23.204 48.476 22.372 50.492 20.708 52.188C19.044 53.852 17.028 54.7 14.66 54.732L21.284 65.724H12.74L7.22 55.644C7.124 55.676 7.012 55.692 6.884 55.692C6.532 55.692 6.228 55.564 5.972 55.308C5.716 55.052 5.588 54.748 5.588 54.396C5.588 54.012 5.716 53.692 5.972 53.436C6.228 53.18 6.532 53.052 6.884 53.052C7.268 53.052 7.588 53.18 7.844 53.436C8.1 53.692 8.228 54.012 8.228 54.396C8.228 54.748 8.084 55.052 7.796 55.308ZM16.244 43.932C16.852 44.54 17.156 45.276 17.156 46.14C17.156 46.972 16.852 47.692 16.244 48.3C15.636 48.908 14.9 49.212 14.036 49.212H6.548V43.02H14.036C14.9 43.02 15.636 43.324 16.244 43.932ZM15.764 47.82C16.244 47.34 16.484 46.78 16.484 46.14C16.484 45.468 16.244 44.892 15.764 44.412C15.284 43.932 14.708 43.692 14.036 43.692H7.22C7.22 43.692 7.22 45.308 7.22 48.54H14.036C14.708 48.54 15.284 48.3 15.764 47.82Z" fill="#1B1B1B"/>
<path d="M27.8889 65.724H27.2169V37.5H33.4089V65.724H32.7369V65.388C32.7369 65.388 32.7369 56.332 32.7369 38.22C32.7369 38.22 31.1209 38.22 27.8889 38.22V65.724Z" fill="#1B1B1B"/>
<path d="M61.4338 49.212C61.4338 49.212 61.4338 50.892 61.4338 54.252C61.4338 57.58 60.2658 60.412 57.9298 62.748C55.5938 65.084 52.7617 66.252 49.4338 66.252C46.1377 66.252 43.3058 65.084 40.9378 62.748C38.6018 60.412 37.4338 57.58 37.4338 54.252V49.212C37.4338 45.884 38.6018 43.052 40.9378 40.716C43.3058 38.348 46.1377 37.164 49.4338 37.164C52.7617 37.164 55.5938 38.348 57.9298 40.716C60.2658 43.052 61.4338 45.884 61.4338 49.212ZM60.7618 49.212C60.7618 46.076 59.6578 43.404 57.4498 41.196C55.2418 38.988 52.5698 37.884 49.4338 37.884C46.3298 37.884 43.6578 38.988 41.4178 41.196C39.2098 43.404 38.1058 46.076 38.1058 49.212V54.252C38.1058 57.388 39.2098 60.06 41.4178 62.268C43.6578 64.476 46.3298 65.58 49.4338 65.58C52.5698 65.58 55.2418 64.476 57.4498 62.268C59.6578 60.06 60.7618 57.388 60.7618 54.252V49.212ZM48.1377 60.156C46.8257 59.868 45.7377 59.196 44.8737 58.14C44.0098 57.084 43.5778 55.868 43.5778 54.492V48.972C43.5778 47.372 44.1538 45.996 45.3058 44.844C46.4578 43.692 47.8338 43.116 49.4338 43.116C50.8097 43.116 52.0257 43.548 53.0817 44.412C54.1698 45.276 54.8577 46.364 55.1458 47.676C55.4658 47.708 55.7217 47.852 55.9137 48.108C56.1377 48.364 56.2498 48.652 56.2498 48.972C56.2498 49.324 56.1217 49.644 55.8657 49.932C55.6097 50.188 55.2897 50.316 54.9058 50.316C54.5537 50.316 54.2498 50.188 53.9938 49.932C53.7378 49.644 53.6097 49.324 53.6097 48.972C53.6097 48.364 53.8978 47.948 54.4738 47.724C54.1858 46.604 53.5778 45.676 52.6497 44.94C51.7217 44.204 50.6497 43.836 49.4338 43.836C48.0257 43.836 46.8098 44.348 45.7858 45.372C44.7938 46.364 44.2978 47.564 44.2978 48.972V54.492C44.2978 55.676 44.6657 56.732 45.4017 57.66C46.1377 58.588 47.0817 59.196 48.2337 59.484C48.4577 58.94 48.8577 58.668 49.4338 58.668C49.8177 58.668 50.1377 58.796 50.3937 59.052C50.6497 59.308 50.7778 59.628 50.7778 60.012C50.7778 60.364 50.6497 60.668 50.3937 60.924C50.1377 61.18 49.8177 61.308 49.4338 61.308C49.1138 61.308 48.8258 61.196 48.5698 60.972C48.3458 60.748 48.2017 60.476 48.1377 60.156Z" fill="#1B1B1B"/>
<path d="M72.998 43.692H65.51V37.5H88.214V43.692C88.214 43.692 85.638 43.692 80.486 43.692V65.724H73.766V65.052H74.102C74.102 65.052 76.006 65.052 79.814 65.052V43.02H80.15C80.15 43.02 82.614 43.02 87.542 43.02C87.542 43.02 87.542 41.42 87.542 38.22C87.542 38.22 80.422 38.22 66.182 38.22C66.182 38.22 66.182 39.82 66.182 43.02H72.998C73.19 42.412 73.59 42.108 74.198 42.108C74.55 42.108 74.838 42.236 75.062 42.492C75.318 42.716 75.446 43.004 75.446 43.356C75.446 43.708 75.318 44.012 75.062 44.268C74.838 44.492 74.55 44.604 74.198 44.604C73.59 44.604 73.19 44.3 72.998 43.692Z" fill="#1B1B1B"/>
<path d="M7.604 6.02H9.092C11.46 6.02 13.476 6.868 15.14 8.564C16.836 10.228 17.684 12.244 17.684 14.612C17.684 16.98 16.836 19.012 15.14 20.708C13.476 22.372 11.46 23.204 9.092 23.204H0.5V0.5H9.092C10.98 0.5 12.788 0.868 14.516 1.604C16.244 2.308 17.764 3.332 19.076 4.676C20.388 5.988 21.396 7.508 22.1 9.236C22.836 10.964 23.204 12.756 23.204 14.612C23.204 18.516 21.828 21.844 19.076 24.596C16.324 27.348 12.996 28.724 9.092 28.724H0.5V28.052H9.092C12.804 28.052 15.972 26.74 18.596 24.116C21.22 21.492 22.532 18.324 22.532 14.612C22.532 10.9 21.22 7.748 18.596 5.156C15.972 2.532 12.804 1.22 9.092 1.22H1.172V22.532H9.092C11.268 22.532 13.124 21.764 14.66 20.228C16.228 18.66 17.012 16.788 17.012 14.612C17.012 12.436 16.228 10.58 14.66 9.044C13.124 7.476 11.268 6.692 9.092 6.692H7.604C7.444 7.364 7.028 7.7 6.356 7.7C5.972 7.7 5.652 7.572 5.396 7.316C5.14 7.06 5.012 6.756 5.012 6.404C5.012 6.02 5.14 5.7 5.396 5.444C5.652 5.188 5.972 5.06 6.356 5.06C7.028 5.06 7.444 5.38 7.604 6.02Z" stroke="#1B1B1B" mask="url(#path-1-outside-1_2004_14)"/>
<path d="M27.8889 28.724H27.2169V0.5H33.4089V28.724H32.7369V28.388C32.7369 28.388 32.7369 19.332 32.7369 1.22C32.7369 1.22 31.1209 1.22 27.8889 1.22V28.724Z" stroke="#1B1B1B" mask="url(#path-1-outside-1_2004_14)"/>
<path d="M44.7298 18.308L50.1058 28.052C50.1058 28.052 52.3937 28.052 56.9697 28.052C56.1058 26.58 54.0098 23.076 50.6818 17.54L50.9697 17.012C50.9697 17.012 51.1618 17.012 51.5457 17.012C53.7217 17.012 55.5778 16.244 57.1138 14.708C58.6818 13.172 59.4658 11.316 59.4658 9.14C59.4658 6.932 58.6818 5.06 57.1138 3.524C55.5778 1.988 53.7217 1.22 51.5457 1.22H38.1058V28.724H37.4338V0.5H51.5457C53.9137 0.5 55.9297 1.348 57.5938 3.044C59.2897 4.708 60.1378 6.74 60.1378 9.14C60.1378 11.476 59.3057 13.492 57.6418 15.188C55.9777 16.852 53.9618 17.7 51.5938 17.732L58.2178 28.724H49.6738L44.1538 18.644C44.0578 18.676 43.9457 18.692 43.8177 18.692C43.4657 18.692 43.1618 18.564 42.9058 18.308C42.6497 18.052 42.5218 17.748 42.5218 17.396C42.5218 17.012 42.6497 16.692 42.9058 16.436C43.1618 16.18 43.4657 16.052 43.8177 16.052C44.2017 16.052 44.5218 16.18 44.7778 16.436C45.0338 16.692 45.1618 17.012 45.1618 17.396C45.1618 17.748 45.0178 18.052 44.7298 18.308ZM53.1777 6.932C53.7858 7.54 54.0898 8.276 54.0898 9.14C54.0898 9.972 53.7858 10.692 53.1777 11.3C52.5697 11.908 51.8337 12.212 50.9697 12.212H43.4818V6.02H50.9697C51.8337 6.02 52.5697 6.324 53.1777 6.932ZM52.6978 10.82C53.1777 10.34 53.4178 9.78 53.4178 9.14C53.4178 8.468 53.1777 7.892 52.6978 7.412C52.2178 6.932 51.6418 6.692 50.9697 6.692H44.1538C44.1538 6.692 44.1538 8.308 44.1538 11.54H50.9697C51.6418 11.54 52.2178 11.3 52.6978 10.82Z" stroke="#1B1B1B" mask="url(#path-1-outside-1_2004_14)"/>
<path d="M71.6386 6.692H64.1506V0.5H86.8546V6.692C86.8546 6.692 84.2786 6.692 79.1266 6.692V28.724H72.4066V28.052H72.7426C72.7426 28.052 74.6466 28.052 78.4546 28.052V6.02H78.7906C78.7906 6.02 81.2546 6.02 86.1826 6.02C86.1826 6.02 86.1826 4.42 86.1826 1.22C86.1826 1.22 79.0626 1.22 64.8226 1.22C64.8226 1.22 64.8226 2.82 64.8226 6.02H71.6386C71.8306 5.412 72.2306 5.108 72.8386 5.108C73.1906 5.108 73.4786 5.236 73.7026 5.492C73.9586 5.716 74.0866 6.004 74.0866 6.356C74.0866 6.708 73.9586 7.012 73.7026 7.268C73.4786 7.492 73.1906 7.604 72.8386 7.604C72.2306 7.604 71.8306 7.3 71.6386 6.692Z" stroke="#1B1B1B" mask="url(#path-1-outside-1_2004_14)"/>
<path d="M7.796 55.308L13.172 65.052C13.172 65.052 15.46 65.052 20.036 65.052C19.172 63.58 17.076 60.076 13.748 54.54L14.036 54.012C14.036 54.012 14.228 54.012 14.612 54.012C16.788 54.012 18.644 53.244 20.18 51.708C21.748 50.172 22.532 48.316 22.532 46.14C22.532 43.932 21.748 42.06 20.18 40.524C18.644 38.988 16.788 38.22 14.612 38.22H1.172V65.724H0.5V37.5H14.612C16.98 37.5 18.996 38.348 20.66 40.044C22.356 41.708 23.204 43.74 23.204 46.14C23.204 48.476 22.372 50.492 20.708 52.188C19.044 53.852 17.028 54.7 14.66 54.732L21.284 65.724H12.74L7.22 55.644C7.124 55.676 7.012 55.692 6.884 55.692C6.532 55.692 6.228 55.564 5.972 55.308C5.716 55.052 5.588 54.748 5.588 54.396C5.588 54.012 5.716 53.692 5.972 53.436C6.228 53.18 6.532 53.052 6.884 53.052C7.268 53.052 7.588 53.18 7.844 53.436C8.1 53.692 8.228 54.012 8.228 54.396C8.228 54.748 8.084 55.052 7.796 55.308ZM16.244 43.932C16.852 44.54 17.156 45.276 17.156 46.14C17.156 46.972 16.852 47.692 16.244 48.3C15.636 48.908 14.9 49.212 14.036 49.212H6.548V43.02H14.036C14.9 43.02 15.636 43.324 16.244 43.932ZM15.764 47.82C16.244 47.34 16.484 46.78 16.484 46.14C16.484 45.468 16.244 44.892 15.764 44.412C15.284 43.932 14.708 43.692 14.036 43.692H7.22C7.22 43.692 7.22 45.308 7.22 48.54H14.036C14.708 48.54 15.284 48.3 15.764 47.82Z" stroke="#1B1B1B" mask="url(#path-1-outside-1_2004_14)"/>
<path d="M27.8889 65.724H27.2169V37.5H33.4089V65.724H32.7369V65.388C32.7369 65.388 32.7369 56.332 32.7369 38.22C32.7369 38.22 31.1209 38.22 27.8889 38.22V65.724Z" stroke="#1B1B1B" mask="url(#path-1-outside-1_2004_14)"/>
<path d="M61.4338 49.212C61.4338 49.212 61.4338 50.892 61.4338 54.252C61.4338 57.58 60.2658 60.412 57.9298 62.748C55.5938 65.084 52.7617 66.252 49.4338 66.252C46.1377 66.252 43.3058 65.084 40.9378 62.748C38.6018 60.412 37.4338 57.58 37.4338 54.252V49.212C37.4338 45.884 38.6018 43.052 40.9378 40.716C43.3058 38.348 46.1377 37.164 49.4338 37.164C52.7617 37.164 55.5938 38.348 57.9298 40.716C60.2658 43.052 61.4338 45.884 61.4338 49.212ZM60.7618 49.212C60.7618 46.076 59.6578 43.404 57.4498 41.196C55.2418 38.988 52.5698 37.884 49.4338 37.884C46.3298 37.884 43.6578 38.988 41.4178 41.196C39.2098 43.404 38.1058 46.076 38.1058 49.212V54.252C38.1058 57.388 39.2098 60.06 41.4178 62.268C43.6578 64.476 46.3298 65.58 49.4338 65.58C52.5698 65.58 55.2418 64.476 57.4498 62.268C59.6578 60.06 60.7618 57.388 60.7618 54.252V49.212ZM48.1377 60.156C46.8257 59.868 45.7377 59.196 44.8737 58.14C44.0098 57.084 43.5778 55.868 43.5778 54.492V48.972C43.5778 47.372 44.1538 45.996 45.3058 44.844C46.4578 43.692 47.8338 43.116 49.4338 43.116C50.8097 43.116 52.0257 43.548 53.0817 44.412C54.1698 45.276 54.8577 46.364 55.1458 47.676C55.4658 47.708 55.7217 47.852 55.9137 48.108C56.1377 48.364 56.2498 48.652 56.2498 48.972C56.2498 49.324 56.1217 49.644 55.8657 49.932C55.6097 50.188 55.2897 50.316 54.9058 50.316C54.5537 50.316 54.2498 50.188 53.9938 49.932C53.7378 49.644 53.6097 49.324 53.6097 48.972C53.6097 48.364 53.8978 47.948 54.4738 47.724C54.1858 46.604 53.5778 45.676 52.6497 44.94C51.7217 44.204 50.6497 43.836 49.4338 43.836C48.0257 43.836 46.8098 44.348 45.7858 45.372C44.7938 46.364 44.2978 47.564 44.2978 48.972V54.492C44.2978 55.676 44.6657 56.732 45.4017 57.66C46.1377 58.588 47.0817 59.196 48.2337 59.484C48.4577 58.94 48.8577 58.668 49.4338 58.668C49.8177 58.668 50.1377 58.796 50.3937 59.052C50.6497 59.308 50.7778 59.628 50.7778 60.012C50.7778 60.364 50.6497 60.668 50.3937 60.924C50.1377 61.18 49.8177 61.308 49.4338 61.308C49.1138 61.308 48.8258 61.196 48.5698 60.972C48.3458 60.748 48.2017 60.476 48.1377 60.156Z" stroke="#1B1B1B" mask="url(#path-1-outside-1_2004_14)"/>
<path d="M72.998 43.692H65.51V37.5H88.214V43.692C88.214 43.692 85.638 43.692 80.486 43.692V65.724H73.766V65.052H74.102C74.102 65.052 76.006 65.052 79.814 65.052V43.02H80.15C80.15 43.02 82.614 43.02 87.542 43.02C87.542 43.02 87.542 41.42 87.542 38.22C87.542 38.22 80.422 38.22 66.182 38.22C66.182 38.22 66.182 39.82 66.182 43.02H72.998C73.19 42.412 73.59 42.108 74.198 42.108C74.55 42.108 74.838 42.236 75.062 42.492C75.318 42.716 75.446 43.004 75.446 43.356C75.446 43.708 75.318 44.012 75.062 44.268C74.838 44.492 74.55 44.604 74.198 44.604C73.59 44.604 73.19 44.3 72.998 43.692Z" stroke="#1B1B1B" mask="url(#path-1-outside-1_2004_14)"/>
</svg>
