<svg width="219" height="39" viewBox="0 0 219 39" fill="none" xmlns="http://www.w3.org/2000/svg">
<path d="M0.98 19V17.92L5.34 11.24C5.66 10.7467 5.96 10.2733 6.24 9.82C6.52 9.35333 6.74667 8.86667 6.92 8.36C7.10667 7.85333 7.2 7.28 7.2 6.64C7.2 5.77333 7.02 5.09333 6.66 4.6C6.31333 4.10667 5.77333 3.86 5.04 3.86C4.38667 3.86 3.88 4.00667 3.52 4.3C3.16 4.59333 2.90667 5 2.76 5.52C2.62667 6.02667 2.56 6.6 2.56 7.24V7.6H1.1V7.2C1.1 6.2 1.23333 5.36667 1.5 4.7C1.76667 4.02 2.18 3.50667 2.74 3.16C3.31333 2.81333 4.06 2.64 4.98 2.64C6.20667 2.64 7.12667 3.00667 7.74 3.74C8.35333 4.46 8.66 5.46667 8.66 6.76C8.66 7.41333 8.56667 8.01333 8.38 8.56C8.19333 9.10667 7.95333 9.63333 7.66 10.14C7.36667 10.6333 7.06 11.1333 6.74 11.64L2.7 17.76H8.32V19H0.98ZM14.867 19.2C13.907 19.2 13.147 18.9933 12.587 18.58C12.027 18.1667 11.627 17.6 11.387 16.88C11.147 16.16 11.027 15.34 11.027 14.42V7.38C11.027 6.44667 11.147 5.62667 11.387 4.92C11.6404 4.2 12.047 3.64 12.607 3.24C13.1804 2.84 13.9337 2.64 14.867 2.64C15.827 2.64 16.587 2.84 17.147 3.24C17.7204 3.64 18.127 4.2 18.367 4.92C18.6204 5.62667 18.747 6.44667 18.747 7.38V14.42C18.747 15.3533 18.6204 16.18 18.367 16.9C18.127 17.62 17.727 18.1867 17.167 18.6C16.607 19 15.8404 19.2 14.867 19.2ZM14.867 18.04C15.4937 18.04 15.9737 17.88 16.307 17.56C16.6537 17.24 16.8937 16.82 17.027 16.3C17.1737 15.7667 17.247 15.18 17.247 14.54V7.28C17.247 6.62667 17.1737 6.04 17.027 5.52C16.8937 4.98667 16.6604 4.56667 16.327 4.26C15.9937 3.95333 15.507 3.8 14.867 3.8C14.2537 3.8 13.7737 3.95333 13.427 4.26C13.0937 4.56667 12.8537 4.98667 12.707 5.52C12.5737 6.04 12.507 6.62667 12.507 7.28V14.54C12.507 15.18 12.5737 15.7667 12.707 16.3C12.8537 16.82 13.1004 17.24 13.447 17.56C13.7937 17.88 14.267 18.04 14.867 18.04ZM0.98 38V36.92L5.34 30.24C5.66 29.7467 5.96 29.2733 6.24 28.82C6.52 28.3533 6.74667 27.8667 6.92 27.36C7.10667 26.8533 7.2 26.28 7.2 25.64C7.2 24.7733 7.02 24.0933 6.66 23.6C6.31333 23.1067 5.77333 22.86 5.04 22.86C4.38667 22.86 3.88 23.0067 3.52 23.3C3.16 23.5933 2.90667 24 2.76 24.52C2.62667 25.0267 2.56 25.6 2.56 26.24V26.6H1.1V26.2C1.1 25.2 1.23333 24.3667 1.5 23.7C1.76667 23.02 2.18 22.5067 2.74 22.16C3.31333 21.8133 4.06 21.64 4.98 21.64C6.20667 21.64 7.12667 22.0067 7.74 22.74C8.35333 23.46 8.66 24.4667 8.66 25.76C8.66 26.4133 8.56667 27.0133 8.38 27.56C8.19333 28.1067 7.95333 28.6333 7.66 29.14C7.36667 29.6333 7.06 30.1333 6.74 30.64L2.7 36.76H8.32V38H0.98ZM14.527 38.18C13.6604 38.18 12.9604 38.0133 12.427 37.68C11.907 37.3467 11.527 36.8533 11.287 36.2C11.047 35.5467 10.927 34.7533 10.927 33.82H12.387C12.387 34.4733 12.4537 35.04 12.587 35.52C12.7204 36 12.947 36.3667 13.267 36.62C13.587 36.8733 14.027 37 14.587 37C15.2004 37 15.667 36.8467 15.987 36.54C16.307 36.22 16.527 35.7533 16.647 35.14C16.767 34.5267 16.827 33.7733 16.827 32.88C16.827 31.8933 16.7537 31.1067 16.607 30.52C16.4737 29.9333 16.2404 29.5133 15.907 29.26C15.587 28.9933 15.1537 28.86 14.607 28.86C14.1937 28.86 13.807 28.9733 13.447 29.2C13.087 29.4267 12.7737 29.76 12.507 30.2H11.287V21.8H17.587V23.18H12.567L12.507 28.8C12.747 28.4933 13.067 28.24 13.467 28.04C13.8804 27.8267 14.387 27.72 14.987 27.72C15.787 27.72 16.427 27.92 16.907 28.32C17.4004 28.7067 17.7537 29.2733 17.967 30.02C18.1804 30.7667 18.287 31.66 18.287 32.7C18.287 33.5667 18.2204 34.34 18.087 35.02C17.9537 35.7 17.7337 36.28 17.427 36.76C17.1337 37.2267 16.747 37.58 16.267 37.82C15.8004 38.06 15.2204 38.18 14.527 38.18Z" fill="white"/>
<path fill-rule="evenodd" clip-rule="evenodd" d="M40.25 13.2083C40.25 13.0205 40.3246 12.8403 40.4575 12.7075C40.5903 12.5746 40.7705 12.5 40.9583 12.5H56.5417C56.7295 12.5 56.9097 12.5746 57.0425 12.7075C57.1754 12.8403 57.25 13.0205 57.25 13.2083V13.9167H60.7917C60.9795 13.9167 61.1597 13.9913 61.2925 14.1241C61.4254 14.257 61.5 14.4371 61.5 14.625V18.875C61.5 19.8143 61.1269 20.7151 60.4627 21.3793C59.7985 22.0435 58.8976 22.4167 57.9583 22.4167H56.7662C56.2597 23.8453 55.381 25.1129 54.2208 26.0884C53.0606 27.0639 51.6611 27.712 50.1667 27.9657V32.3333H54.4167C54.6045 32.3333 54.7847 32.408 54.9175 32.5408C55.0504 32.6736 55.125 32.8538 55.125 33.0417V37.2917C55.125 37.4795 55.0504 37.6597 54.9175 37.7925C54.7847 37.9254 54.6045 38 54.4167 38H43.0833C42.8955 38 42.7153 37.9254 42.5825 37.7925C42.4496 37.6597 42.375 37.4795 42.375 37.2917V33.0417C42.375 32.8538 42.4496 32.6736 42.5825 32.5408C42.7153 32.408 42.8955 32.3333 43.0833 32.3333H47.3333V27.9657C45.8389 27.712 44.4394 27.0639 43.2792 26.0884C42.119 25.1129 41.2403 23.8453 40.7338 22.4167H39.5417C38.6024 22.4167 37.7015 22.0435 37.0373 21.3793C36.3731 20.7151 36 19.8143 36 18.875V14.625C36 14.4371 36.0746 14.257 36.2075 14.1241C36.3403 13.9913 36.5205 13.9167 36.7083 13.9167H40.25V13.2083ZM57.25 19.5833V15.3333H60.0833V18.875C60.0833 19.4386 59.8594 19.9791 59.4609 20.3776C59.0624 20.7761 58.5219 21 57.9583 21H57.25V19.5833ZM40.25 15.3333H37.4167V18.875C37.4167 19.4386 37.6405 19.9791 38.0391 20.3776C38.4376 20.7761 38.9781 21 39.5417 21H40.25V15.3333Z" fill="#F9F9F7"/>
<path d="M77.868 19V4.42H78.84V19H77.868ZM81.559 19V4.42H82.333L87.283 16.732V4.42H88.147V19H87.373L82.423 6.67V19H81.559ZM92.7487 19V5.212H89.8327V4.42H96.5647V5.212H93.7207V19H92.7487ZM98.2578 19V4.42H103.298V5.212H99.2478V11.062H102.578V11.818H99.2478V18.226H103.352V19H98.2578ZM105.342 19V4.42H108.87C109.734 4.42 110.394 4.582 110.85 4.906C111.318 5.218 111.636 5.65 111.804 6.202C111.984 6.742 112.074 7.348 112.074 8.02C112.074 8.56 112.014 9.076 111.894 9.568C111.786 10.06 111.576 10.48 111.264 10.828C110.964 11.164 110.52 11.38 109.932 11.476L112.272 19H111.3L109.032 11.656H106.314V19H105.342ZM106.314 10.9H108.834C109.458 10.9 109.932 10.786 110.256 10.558C110.58 10.318 110.802 9.982 110.922 9.55C111.054 9.118 111.12 8.608 111.12 8.02C111.12 7.096 110.964 6.394 110.652 5.914C110.352 5.434 109.74 5.194 108.816 5.194H106.314V10.9ZM114.483 19V4.42H115.257L120.207 16.732V4.42H121.071V19H120.297L115.347 6.67V19H114.483ZM122.972 19L126.032 4.42H127.166L130.244 19H129.254L128.498 14.968H124.718L123.944 19H122.972ZM124.862 14.248H128.372L126.608 5.608L124.862 14.248ZM133.407 19V5.212H130.491V4.42H137.223V5.212H134.379V19H133.407ZM138.952 19V4.42H139.924V19H138.952ZM145.937 19.198C144.989 19.198 144.251 19.012 143.723 18.64C143.207 18.256 142.847 17.74 142.643 17.092C142.439 16.432 142.337 15.688 142.337 14.86V8.488C142.337 7.66 142.445 6.928 142.661 6.292C142.877 5.656 143.243 5.158 143.759 4.798C144.287 4.438 145.013 4.258 145.937 4.258C146.861 4.258 147.581 4.438 148.097 4.798C148.625 5.158 148.997 5.656 149.213 6.292C149.429 6.928 149.537 7.66 149.537 8.488V14.878C149.537 15.706 149.435 16.444 149.231 17.092C149.027 17.74 148.661 18.256 148.133 18.64C147.617 19.012 146.885 19.198 145.937 19.198ZM145.937 18.388C146.633 18.388 147.167 18.25 147.539 17.974C147.923 17.698 148.187 17.314 148.331 16.822C148.475 16.318 148.547 15.736 148.547 15.076V8.344C148.547 7.684 148.475 7.108 148.331 6.616C148.187 6.124 147.929 5.746 147.557 5.482C147.185 5.206 146.645 5.068 145.937 5.068C145.241 5.068 144.701 5.206 144.317 5.482C143.945 5.746 143.687 6.124 143.543 6.616C143.399 7.108 143.327 7.684 143.327 8.344V15.076C143.327 15.736 143.399 16.318 143.543 16.822C143.687 17.314 143.945 17.698 144.317 17.974C144.701 18.25 145.241 18.388 145.937 18.388ZM151.924 19V4.42H152.698L157.648 16.732V4.42H158.512V19H157.738L152.788 6.67V19H151.924ZM160.414 19L163.474 4.42H164.608L167.686 19H166.696L165.94 14.968H162.16L161.386 19H160.414ZM162.304 14.248H165.814L164.05 5.608L162.304 14.248ZM173.018 19V4.42H176.204C177.176 4.42 177.932 4.606 178.472 4.978C179.012 5.35 179.39 5.854 179.606 6.49C179.822 7.126 179.93 7.834 179.93 8.614V14.662C179.93 15.49 179.822 16.234 179.606 16.894C179.39 17.542 179.018 18.058 178.49 18.442C177.974 18.814 177.242 19 176.294 19H173.018ZM173.99 18.226H176.24C177.032 18.226 177.62 18.058 178.004 17.722C178.388 17.386 178.64 16.942 178.76 16.39C178.88 15.826 178.94 15.214 178.94 14.554V8.686C178.94 7.978 178.868 7.366 178.724 6.85C178.58 6.322 178.31 5.92 177.914 5.644C177.518 5.356 176.948 5.212 176.204 5.212H173.99V18.226ZM182.299 19V4.42H187.339V5.212H183.289V11.062H186.619V11.818H183.289V18.226H187.393V19H182.299ZM192.299 19.18C191.531 19.18 190.895 19.024 190.391 18.712C189.899 18.4 189.521 17.962 189.257 17.398C189.005 16.834 188.849 16.168 188.789 15.4L189.635 15.13C189.719 15.766 189.845 16.33 190.013 16.822C190.193 17.314 190.463 17.698 190.823 17.974C191.183 18.238 191.681 18.37 192.317 18.37C193.037 18.37 193.601 18.19 194.009 17.83C194.429 17.47 194.639 16.87 194.639 16.03C194.639 15.394 194.471 14.824 194.135 14.32C193.811 13.804 193.349 13.252 192.749 12.664L190.085 10.018C189.641 9.562 189.317 9.106 189.113 8.65C188.909 8.194 188.807 7.726 188.807 7.246C188.807 6.286 189.101 5.548 189.689 5.032C190.289 4.516 191.063 4.258 192.011 4.258C192.503 4.258 192.947 4.324 193.343 4.456C193.739 4.576 194.081 4.78 194.369 5.068C194.669 5.344 194.903 5.716 195.071 6.184C195.239 6.652 195.347 7.228 195.395 7.912L194.567 8.11C194.519 7.426 194.405 6.856 194.225 6.4C194.045 5.944 193.781 5.608 193.433 5.392C193.085 5.164 192.617 5.05 192.029 5.05C191.369 5.05 190.817 5.218 190.373 5.554C189.929 5.89 189.707 6.43 189.707 7.174C189.707 7.546 189.779 7.906 189.923 8.254C190.079 8.602 190.361 8.98 190.769 9.388L193.397 11.98C193.985 12.556 194.489 13.174 194.909 13.834C195.341 14.482 195.557 15.196 195.557 15.976C195.557 16.708 195.419 17.314 195.143 17.794C194.867 18.262 194.483 18.61 193.991 18.838C193.499 19.066 192.935 19.18 192.299 19.18ZM197.54 19V4.42H198.512V19H197.54ZM204.417 19.198C203.493 19.198 202.779 19.012 202.275 18.64C201.771 18.256 201.417 17.728 201.213 17.056C201.021 16.384 200.925 15.622 200.925 14.77V8.578C200.925 7.726 201.021 6.976 201.213 6.328C201.417 5.68 201.777 5.176 202.293 4.816C202.809 4.444 203.535 4.258 204.471 4.258C205.323 4.258 205.989 4.426 206.469 4.762C206.961 5.098 207.309 5.578 207.513 6.202C207.729 6.826 207.837 7.564 207.837 8.416V8.92H206.901V8.362C206.901 7.642 206.829 7.042 206.685 6.562C206.541 6.07 206.295 5.698 205.947 5.446C205.599 5.194 205.107 5.068 204.471 5.068C203.763 5.068 203.223 5.218 202.851 5.518C202.479 5.806 202.227 6.214 202.095 6.742C201.975 7.258 201.915 7.858 201.915 8.542V14.896C201.915 15.604 201.987 16.222 202.131 16.75C202.275 17.266 202.533 17.668 202.905 17.956C203.277 18.244 203.805 18.388 204.489 18.388C205.137 18.388 205.635 18.25 205.983 17.974C206.343 17.698 206.589 17.302 206.721 16.786C206.865 16.27 206.937 15.658 206.937 14.95V12.808H204.615V12.052H207.855V19H207.225L207.081 17.362C206.901 17.926 206.601 18.376 206.181 18.712C205.773 19.036 205.185 19.198 204.417 19.198ZM210.407 19V4.42H211.181L216.131 16.732V4.42H216.995V19H216.221L211.271 6.67V19H210.407ZM77.832 37V22.42H82.872V23.212H78.822V29.062H82.152V29.818H78.822V36.226H82.926V37H77.832ZM83.8364 37L87.0404 29.44L83.8544 22.42H84.7544L87.6164 28.648L90.4064 22.42H91.3784L88.0484 29.584L91.4504 37H90.4964L87.4904 30.448L84.8084 37H83.8364ZM96.2951 37.198C95.3351 37.198 94.5971 37 94.0811 36.604C93.5771 36.208 93.2291 35.68 93.0371 35.02C92.8451 34.348 92.7491 33.61 92.7491 32.806V26.614C92.7491 25.774 92.8511 25.03 93.0551 24.382C93.2591 23.722 93.6191 23.206 94.1351 22.834C94.6511 22.45 95.3711 22.258 96.2951 22.258C97.1471 22.258 97.8131 22.426 98.2931 22.762C98.7731 23.098 99.1151 23.578 99.3191 24.202C99.5231 24.814 99.6251 25.534 99.6251 26.362V27.1H98.6891V26.362C98.6891 25.666 98.6231 25.078 98.4911 24.598C98.3591 24.106 98.1191 23.728 97.7711 23.464C97.4231 23.2 96.9311 23.068 96.2951 23.068C95.5991 23.068 95.0651 23.212 94.6931 23.5C94.3211 23.788 94.0691 24.19 93.9371 24.706C93.8051 25.222 93.7391 25.822 93.7391 26.506V32.95C93.7391 33.67 93.8111 34.288 93.9551 34.804C94.0991 35.308 94.3571 35.698 94.7291 35.974C95.1011 36.25 95.6231 36.388 96.2951 36.388C96.9431 36.388 97.4411 36.25 97.7891 35.974C98.1371 35.698 98.3711 35.314 98.4911 34.822C98.6231 34.318 98.6891 33.736 98.6891 33.076V32.194H99.6251V32.914C99.6251 33.742 99.5291 34.48 99.3371 35.128C99.1451 35.776 98.8091 36.286 98.3291 36.658C97.8491 37.018 97.1711 37.198 96.2951 37.198ZM101.844 37V22.42H106.884V23.212H102.834V29.062H106.164V29.818H102.834V36.226H106.938V37H101.844ZM108.928 37V22.42H109.9V36.226H114.31V37H108.928ZM115.643 37V22.42H116.615V36.226H121.025V37H115.643ZM122.34 37V22.42H127.38V23.212H123.33V29.062H126.66V29.818H123.33V36.226H127.434V37H122.34ZM129.424 37V22.42H130.198L135.148 34.732V22.42H136.012V37H135.238L130.288 24.67V37H129.424ZM141.928 37.198C140.968 37.198 140.23 37 139.714 36.604C139.21 36.208 138.862 35.68 138.67 35.02C138.478 34.348 138.382 33.61 138.382 32.806V26.614C138.382 25.774 138.484 25.03 138.688 24.382C138.892 23.722 139.252 23.206 139.768 22.834C140.284 22.45 141.004 22.258 141.928 22.258C142.78 22.258 143.446 22.426 143.926 22.762C144.406 23.098 144.748 23.578 144.952 24.202C145.156 24.814 145.258 25.534 145.258 26.362V27.1H144.322V26.362C144.322 25.666 144.256 25.078 144.124 24.598C143.992 24.106 143.752 23.728 143.404 23.464C143.056 23.2 142.564 23.068 141.928 23.068C141.232 23.068 140.698 23.212 140.326 23.5C139.954 23.788 139.702 24.19 139.57 24.706C139.438 25.222 139.372 25.822 139.372 26.506V32.95C139.372 33.67 139.444 34.288 139.588 34.804C139.732 35.308 139.99 35.698 140.362 35.974C140.734 36.25 141.256 36.388 141.928 36.388C142.576 36.388 143.074 36.25 143.422 35.974C143.77 35.698 144.004 35.314 144.124 34.822C144.256 34.318 144.322 33.736 144.322 33.076V32.194H145.258V32.914C145.258 33.742 145.162 34.48 144.97 35.128C144.778 35.776 144.442 36.286 143.962 36.658C143.482 37.018 142.804 37.198 141.928 37.198ZM147.477 37V22.42H152.517V23.212H148.467V29.062H151.797V29.818H148.467V36.226H152.571V37H147.477ZM157.197 37L160.257 22.42H161.391L164.469 37H163.479L162.723 32.968H158.943L158.169 37H157.197ZM159.087 32.248H162.597L160.833 23.608L159.087 32.248ZM167.611 37L165.073 22.42H165.937L168.079 35.074L170.419 22.744H171.355L173.767 35.074L175.711 22.42H176.557L174.199 37H173.371L170.887 24.238L168.457 37H167.611ZM177.166 37L180.226 22.42H181.36L184.438 37H183.448L182.692 32.968H178.912L178.138 37H177.166ZM179.056 32.248H182.566L180.802 23.608L179.056 32.248ZM186.36 37V22.42H189.888C190.752 22.42 191.412 22.582 191.868 22.906C192.336 23.218 192.654 23.65 192.822 24.202C193.002 24.742 193.092 25.348 193.092 26.02C193.092 26.56 193.032 27.076 192.912 27.568C192.804 28.06 192.594 28.48 192.282 28.828C191.982 29.164 191.538 29.38 190.95 29.476L193.29 37H192.318L190.05 29.656H187.332V37H186.36ZM187.332 28.9H189.852C190.476 28.9 190.95 28.786 191.274 28.558C191.598 28.318 191.82 27.982 191.94 27.55C192.072 27.118 192.138 26.608 192.138 26.02C192.138 25.096 191.982 24.394 191.67 23.914C191.37 23.434 190.758 23.194 189.834 23.194H187.332V28.9ZM195.5 37V22.42H198.686C199.658 22.42 200.414 22.606 200.954 22.978C201.494 23.35 201.872 23.854 202.088 24.49C202.304 25.126 202.412 25.834 202.412 26.614V32.662C202.412 33.49 202.304 34.234 202.088 34.894C201.872 35.542 201.5 36.058 200.972 36.442C200.456 36.814 199.724 37 198.776 37H195.5ZM196.472 36.226H198.722C199.514 36.226 200.102 36.058 200.486 35.722C200.87 35.386 201.122 34.942 201.242 34.39C201.362 33.826 201.422 33.214 201.422 32.554V26.686C201.422 25.978 201.35 25.366 201.206 24.85C201.062 24.322 200.792 23.92 200.396 23.644C200 23.356 199.43 23.212 198.686 23.212H196.472V36.226ZM207.715 37.18C206.947 37.18 206.311 37.024 205.807 36.712C205.315 36.4 204.937 35.962 204.673 35.398C204.421 34.834 204.265 34.168 204.205 33.4L205.051 33.13C205.135 33.766 205.261 34.33 205.429 34.822C205.609 35.314 205.879 35.698 206.239 35.974C206.599 36.238 207.097 36.37 207.733 36.37C208.453 36.37 209.017 36.19 209.425 35.83C209.845 35.47 210.055 34.87 210.055 34.03C210.055 33.394 209.887 32.824 209.551 32.32C209.227 31.804 208.765 31.252 208.165 30.664L205.501 28.018C205.057 27.562 204.733 27.106 204.529 26.65C204.325 26.194 204.223 25.726 204.223 25.246C204.223 24.286 204.517 23.548 205.105 23.032C205.705 22.516 206.479 22.258 207.427 22.258C207.919 22.258 208.363 22.324 208.759 22.456C209.155 22.576 209.497 22.78 209.785 23.068C210.085 23.344 210.319 23.716 210.487 24.184C210.655 24.652 210.763 25.228 210.811 25.912L209.983 26.11C209.935 25.426 209.821 24.856 209.641 24.4C209.461 23.944 209.197 23.608 208.849 23.392C208.501 23.164 208.033 23.05 207.445 23.05C206.785 23.05 206.233 23.218 205.789 23.554C205.345 23.89 205.123 24.43 205.123 25.174C205.123 25.546 205.195 25.906 205.339 26.254C205.495 26.602 205.777 26.98 206.185 27.388L208.813 29.98C209.401 30.556 209.905 31.174 210.325 31.834C210.757 32.482 210.973 33.196 210.973 33.976C210.973 34.708 210.835 35.314 210.559 35.794C210.283 36.262 209.899 36.61 209.407 36.838C208.915 37.066 208.351 37.18 207.715 37.18Z" fill="white"/>
</svg>
