<svg width="48" height="48" viewBox="0 0 48 48" fill="none" xmlns="http://www.w3.org/2000/svg">
<rect x="-0.5" y="0.5" width="47" height="47" rx="23.5" transform="matrix(-1 0 0 1 47 0)" stroke="#D4AF37"/>
<path d="M11.7929 24.7071C11.4024 24.3166 11.4024 23.6834 11.7929 23.2929L18.1569 16.9289C18.5474 16.5384 19.1805 16.5384 19.5711 16.9289C19.9616 17.3195 19.9616 17.9526 19.5711 18.3431L13.9142 24L19.5711 29.6569C19.9616 30.0474 19.9616 30.6805 19.5711 31.0711C19.1805 31.4616 18.5474 31.4616 18.1569 31.0711L11.7929 24.7071ZM35.5 24V25H12.5V24V23H35.5V24Z" fill="white"/>
</svg>
